<svg width="24" height="24" viewBox="0 0 24 24" fill="none" xmlns="http://www.w3.org/2000/svg">
<rect width="24" height="24" fill="white" fillOpacity="0.01"/>
<path fillRule="evenodd" clipRule="evenodd" d="M5.80001 11.9992C5.80001 12.9933 4.99412 13.7992 4.00001 13.7992C3.0059 13.7992 2.20001 12.9933 2.20001 11.9992C2.20001 11.0051 3.0059 10.1992 4.00001 10.1992C4.99412 10.1992 5.80001 11.0051 5.80001 11.9992ZM13.8 11.9992C13.8 12.9933 12.9941 13.7992 12 13.7992C11.0059 13.7992 10.2 12.9933 10.2 11.9992C10.2 11.0051 11.0059 10.1992 12 10.1992C12.9941 10.1992 13.8 11.0051 13.8 11.9992ZM20 13.7992C20.9941 13.7992 21.8 12.9933 21.8 11.9992C21.8 11.0051 20.9941 10.1992 20 10.1992C19.0059 10.1992 18.2 11.0051 18.2 11.9992C18.2 12.9933 19.0059 13.7992 20 13.7992Z" fill="#211F26"/>
</svg>
