<svg width="24" height="24" viewBox="0 0 24 24" fill="none" xmlns="http://www.w3.org/2000/svg">
<path d="M5.25 5.7002H20.25C20.3296 5.7002 20.4057 5.73183 20.4619 5.78809C20.5182 5.84435 20.5498 5.92044 20.5498 6V17.25C20.5498 17.5285 20.4391 17.7953 20.2422 17.9922C20.0453 18.1891 19.7785 18.2998 19.5 18.2998H4.6416C4.84064 17.9885 4.9502 17.6252 4.9502 17.25V6C4.9502 5.92044 4.98183 5.84435 5.03809 5.78809C5.09435 5.73183 5.17043 5.7002 5.25 5.7002ZM9 8.5498C8.48283 8.5498 7.98679 8.7554 7.62109 9.12109C7.2554 9.48679 7.0498 9.98283 7.0498 10.5C7.0498 11.0172 7.2554 11.5132 7.62109 11.8789C7.66383 11.9216 7.70876 11.9617 7.75488 12C7.70876 12.0383 7.66383 12.0784 7.62109 12.1211C7.2554 12.4868 7.0498 12.9828 7.0498 13.5C7.0498 14.0172 7.2554 14.5132 7.62109 14.8789C7.98679 15.2446 8.48283 15.4502 9 15.4502H16.5C17.0172 15.4502 17.5132 15.2446 17.8789 14.8789C18.2446 14.5132 18.4502 14.0172 18.4502 13.5C18.4502 13.0477 18.2929 12.6116 18.0088 12.2646L17.8789 12.1211L17.7441 12C17.7905 11.9616 17.836 11.9218 17.8789 11.8789C18.2446 11.5132 18.4502 11.0172 18.4502 10.5C18.4502 10.0477 18.2929 9.61156 18.0088 9.26465L17.8789 9.12109L17.7354 8.99121C17.3884 8.70715 16.9523 8.5498 16.5 8.5498H9Z" fill="#2B9A66" stroke="#2B9A66" stroke-width="2.4"/>
</svg>
