<svg width="202" height="27" viewBox="0 0 202 27" fill="none" xmlns="http://www.w3.org/2000/svg">
<g clip-path="url(#clip0_4512_6173)">
<path d="M7.04876 0.477161C7.19964 0.628379 7.31933 0.807953 7.40099 1.00562C7.48265 1.20328 7.52468 1.41515 7.52468 1.62913C7.52468 1.8431 7.48265 2.05498 7.40099 2.25264C7.31933 2.4503 7.19964 2.62988 7.04876 2.7811C4.61377 5.22476 3.24584 8.53883 3.24584 11.9944C3.24584 15.45 4.61377 18.764 7.04876 21.2077C7.20375 21.3579 7.32737 21.5376 7.41242 21.7362C7.49746 21.9349 7.54222 22.1485 7.5441 22.3647C7.54597 22.5809 7.50491 22.7953 7.42332 22.9954C7.34173 23.1955 7.22124 23.3773 7.06887 23.5302C6.91651 23.6831 6.73533 23.804 6.53591 23.8858C6.33648 23.9677 6.1228 24.0089 5.90734 24.007C5.69188 24.0051 5.47894 23.9602 5.28096 23.8749C5.08299 23.7896 4.90393 23.6655 4.75424 23.51C-1.58572 17.1502 -1.58572 6.837 4.75424 0.477161C5.05854 0.171917 5.47121 0.000439441 5.9015 0.000439441C6.33179 0.000439441 6.74446 0.171917 7.04876 0.477161ZM27.7092 0.477161C34.0475 6.83863 34.0475 17.1502 27.7092 23.51C27.4049 23.8155 26.9922 23.9872 26.5617 23.9874C26.1313 23.9876 25.7184 23.8161 25.4139 23.5108C25.1094 23.2055 24.9382 22.7913 24.9381 22.3594C24.9379 21.9275 25.1088 21.5132 25.4131 21.2077C27.8481 18.764 29.216 15.45 29.216 11.9944C29.216 8.53883 27.8481 5.22476 25.4131 2.7811C25.1086 2.47558 24.9375 2.0612 24.9375 1.62913C24.9375 1.19706 25.1086 0.782682 25.4131 0.477161C25.7176 0.17164 26.1305 8.51716e-09 26.5611 0C26.9917 -8.51716e-09 27.4047 0.17164 27.7092 0.477161ZM11.8634 5.15667C12.1676 5.46201 12.3385 5.87608 12.3385 6.30783C12.3385 6.73957 12.1676 7.15364 11.8634 7.45898C11.2726 8.05167 10.804 8.75531 10.4843 9.52973C10.1646 10.3042 10 11.1342 10 11.9724C10 12.8106 10.1646 13.6407 10.4843 14.4151C10.804 15.1895 11.2726 15.8932 11.8634 16.4858C12.014 16.6371 12.1335 16.8167 12.215 17.0143C12.2965 17.2119 12.3384 17.4237 12.3383 17.6376C12.3383 17.8514 12.2962 18.0632 12.2146 18.2607C12.1329 18.4583 12.0133 18.6378 11.8626 18.789C11.7118 18.9401 11.5328 19.06 11.3359 19.1418C11.1389 19.2236 10.9279 19.2656 10.7147 19.2656C10.5016 19.2655 10.2905 19.2233 10.0937 19.1414C9.89676 19.0595 9.71788 18.9394 9.56722 18.7882C7.76573 16.9805 6.75366 14.5288 6.75366 11.9724C6.75366 9.41603 7.76573 6.96434 9.56722 5.15667C9.71793 5.00529 9.89689 4.88519 10.0939 4.80325C10.2909 4.72131 10.502 4.67914 10.7153 4.67914C10.9285 4.67914 11.1397 4.72131 11.3367 4.80325C11.5337 4.88519 11.7127 5.00529 11.8634 5.15667ZM23.1542 5.15667C24.9557 6.96434 25.9678 9.41603 25.9678 11.9724C25.9678 14.5288 24.9557 16.9805 23.1542 18.7882C22.8482 19.0847 22.4383 19.2489 22.0128 19.2452C21.5873 19.2414 21.1803 19.0702 20.8795 18.7683C20.5786 18.4664 20.408 18.0581 20.4043 17.6311C20.4006 17.2042 20.5641 16.7929 20.8597 16.4858C21.4505 15.8932 21.9191 15.1895 22.2388 14.4151C22.5585 13.6407 22.7231 12.8106 22.7231 11.9724C22.7231 11.1342 22.5585 10.3042 22.2388 9.52973C21.9191 8.75531 21.4505 8.05167 20.8597 7.45898C20.5641 7.15189 20.4006 6.7406 20.4043 6.31369C20.408 5.88677 20.5786 5.47839 20.8795 5.17651C21.1803 4.87462 21.5873 4.70338 22.0128 4.69967C22.4383 4.69596 22.8482 4.86008 23.1542 5.15667ZM16.3615 9.66685C17.0071 9.66685 17.6262 9.92416 18.0827 10.3822C18.5392 10.8402 18.7956 11.4614 18.7956 12.1092C18.7956 12.7569 18.5392 13.3781 18.0827 13.8362C17.6262 14.2942 17.0071 14.5515 16.3615 14.5515C15.716 14.5515 15.0969 14.2942 14.6404 13.8362C14.1839 13.3781 13.9275 12.7569 13.9275 12.1092C13.9275 11.4614 14.1839 10.8402 14.6404 10.3822C15.0969 9.92416 15.716 9.66685 16.3615 9.66685Z" fill="#E0B669"/>
</g>
<path d="M43.7026 3.7H49.1506C51.0866 3.7 52.5586 4.06 53.5666 4.78C54.5746 5.484 55.0786 6.524 55.0786 7.9C55.0786 8.7 54.8946 9.388 54.5266 9.964C54.1586 10.54 53.5826 11.028 52.7986 11.428V11.5C53.8226 11.884 54.5586 12.396 55.0066 13.036C55.4706 13.676 55.7026 14.516 55.7026 15.556C55.7026 17.156 55.2306 18.38 54.2866 19.228C53.3586 20.076 51.9986 20.5 50.2066 20.5H43.7026V3.7ZM49.4626 10.396C50.1346 10.396 50.6546 10.212 51.0226 9.844C51.4066 9.46 51.5986 8.932 51.5986 8.26C51.5986 7.604 51.3826 7.124 50.9506 6.82C50.5346 6.516 49.8866 6.364 49.0066 6.364H47.1586V10.396H49.4626ZM49.9426 17.836C50.6946 17.836 51.2706 17.62 51.6706 17.188C52.0866 16.756 52.2946 16.14 52.2946 15.34C52.2946 14.492 52.0466 13.876 51.5506 13.492C51.0546 13.108 50.2546 12.916 49.1506 12.916H47.1586V17.836H49.9426ZM61.4492 20.74C60.6652 20.74 59.9612 20.58 59.3372 20.26C58.7132 19.924 58.2252 19.468 57.8732 18.892C57.5212 18.3 57.3452 17.644 57.3452 16.924C57.3452 15.692 57.8332 14.748 58.8092 14.092C59.7852 13.436 61.1772 13.108 62.9852 13.108H64.8572V12.604C64.8572 11.964 64.6652 11.476 64.2812 11.14C63.9132 10.788 63.3852 10.612 62.6972 10.612C61.9772 10.612 61.2892 10.74 60.6332 10.996C59.9772 11.252 59.4412 11.604 59.0252 12.052L57.6812 10.276C58.3372 9.652 59.1132 9.164 60.0092 8.812C60.9052 8.444 61.8332 8.26 62.7932 8.26C64.3932 8.26 65.6492 8.636 66.5612 9.388C67.4732 10.14 67.9292 11.18 67.9292 12.508V17.98C67.9292 18.348 67.9532 18.78 68.0012 19.276C68.0652 19.772 68.1372 20.18 68.2172 20.5H65.5052C65.4092 20.292 65.3372 20.092 65.2892 19.9C65.2412 19.692 65.2012 19.412 65.1692 19.06H65.1212C64.2092 20.18 62.9852 20.74 61.4492 20.74ZM62.1932 18.436C62.9612 18.436 63.5932 18.244 64.0892 17.86C64.6012 17.46 64.8572 16.956 64.8572 16.348V15.148H62.8892C62.0732 15.148 61.4412 15.3 60.9932 15.604C60.5612 15.908 60.3452 16.348 60.3452 16.924C60.3452 17.404 60.5052 17.78 60.8252 18.052C61.1612 18.308 61.6172 18.436 62.1932 18.436ZM75.9524 20.74C74.0964 20.74 72.6324 20.188 71.5604 19.084C70.5044 17.964 69.9764 16.436 69.9764 14.5C69.9764 12.548 70.5044 11.02 71.5604 9.916C72.6324 8.812 74.0964 8.26 75.9524 8.26C77.0724 8.26 78.0484 8.468 78.8804 8.884C79.7124 9.3 80.3524 9.892 80.8004 10.66L78.9524 12.268C78.6484 11.74 78.2404 11.332 77.7284 11.044C77.2324 10.756 76.6884 10.612 76.0964 10.612C75.1364 10.612 74.3844 10.956 73.8404 11.644C73.2964 12.332 73.0244 13.284 73.0244 14.5C73.0244 15.716 73.2964 16.668 73.8404 17.356C74.3844 18.044 75.1364 18.388 76.0964 18.388C76.6884 18.388 77.2324 18.244 77.7284 17.956C78.2244 17.652 78.6324 17.244 78.9524 16.732L80.8004 18.34C80.3524 19.108 79.7124 19.7 78.8804 20.116C78.0484 20.532 77.0724 20.74 75.9524 20.74ZM90.4049 20.5L86.8529 14.908L85.4129 16.324V20.5H82.3409V2.692H85.4129V12.652L89.6369 8.5H93.4049L88.9649 12.844L93.8609 20.5H90.4049ZM99.0017 20.74C97.9617 20.74 97.0417 20.532 96.2417 20.116C95.4577 19.7 94.9057 19.148 94.5857 18.46L96.4817 17.14C96.7697 17.54 97.1377 17.86 97.5857 18.1C98.0337 18.34 98.4897 18.46 98.9537 18.46C99.4977 18.46 99.9457 18.324 100.298 18.052C100.65 17.764 100.826 17.412 100.826 16.996C100.826 16.66 100.698 16.396 100.442 16.204C100.186 15.996 99.6417 15.732 98.8097 15.412C97.3537 14.852 96.3297 14.284 95.7377 13.708C95.1457 13.132 94.8497 12.42 94.8497 11.572C94.8497 10.58 95.2497 9.78 96.0497 9.172C96.8657 8.564 97.9457 8.26 99.2897 8.26C100.186 8.26 100.994 8.436 101.714 8.788C102.434 9.124 103.018 9.612 103.466 10.252L101.69 11.572C101.13 10.884 100.37 10.54 99.4097 10.54C98.9297 10.54 98.5537 10.628 98.2817 10.804C98.0257 10.964 97.8977 11.204 97.8977 11.524C97.8977 11.748 97.9537 11.932 98.0657 12.076C98.1777 12.22 98.3937 12.372 98.7137 12.532C99.0337 12.692 99.5457 12.908 100.25 13.18C101.194 13.548 101.922 13.908 102.434 14.26C102.962 14.596 103.33 14.972 103.538 15.388C103.762 15.788 103.874 16.276 103.874 16.852C103.874 17.62 103.666 18.3 103.25 18.892C102.85 19.468 102.282 19.924 101.546 20.26C100.81 20.58 99.9617 20.74 99.0017 20.74ZM110.915 20.74C109.683 20.74 108.723 20.404 108.035 19.732C107.347 19.06 107.003 18.116 107.003 16.9V10.78H104.819V8.5H107.003V5.404L109.979 4.54H110.075V8.5H113.555V10.78H110.075V16.444C110.075 17.132 110.235 17.636 110.555 17.956C110.875 18.276 111.363 18.436 112.019 18.436C112.643 18.436 113.227 18.34 113.771 18.148L113.915 20.236C113.195 20.572 112.195 20.74 110.915 20.74ZM119.434 20.74C118.65 20.74 117.946 20.58 117.322 20.26C116.698 19.924 116.21 19.468 115.858 18.892C115.506 18.3 115.33 17.644 115.33 16.924C115.33 15.692 115.818 14.748 116.794 14.092C117.77 13.436 119.162 13.108 120.97 13.108H122.842V12.604C122.842 11.964 122.65 11.476 122.266 11.14C121.898 10.788 121.37 10.612 120.682 10.612C119.962 10.612 119.274 10.74 118.618 10.996C117.962 11.252 117.426 11.604 117.01 12.052L115.666 10.276C116.322 9.652 117.098 9.164 117.994 8.812C118.89 8.444 119.818 8.26 120.778 8.26C122.378 8.26 123.634 8.636 124.546 9.388C125.458 10.14 125.914 11.18 125.914 12.508V17.98C125.914 18.348 125.938 18.78 125.986 19.276C126.05 19.772 126.122 20.18 126.202 20.5H123.49C123.394 20.292 123.322 20.092 123.274 19.9C123.226 19.692 123.186 19.412 123.154 19.06H123.106C122.194 20.18 120.97 20.74 119.434 20.74ZM120.178 18.436C120.946 18.436 121.578 18.244 122.074 17.86C122.586 17.46 122.842 16.956 122.842 16.348V15.148H120.874C120.058 15.148 119.426 15.3 118.978 15.604C118.546 15.908 118.33 16.348 118.33 16.924C118.33 17.404 118.49 17.78 118.81 18.052C119.146 18.308 119.602 18.436 120.178 18.436ZM139.457 8.5V20.02C139.457 22.052 138.953 23.58 137.945 24.604C136.937 25.644 135.441 26.164 133.457 26.164C132.529 26.164 131.649 26.052 130.817 25.828C130.001 25.604 129.273 25.284 128.633 24.868L129.665 22.78C130.241 23.068 130.849 23.292 131.489 23.452C132.129 23.628 132.737 23.716 133.313 23.716C134.401 23.716 135.209 23.372 135.737 22.684C136.265 22.012 136.529 20.988 136.529 19.612V19.228C136.209 19.66 135.769 19.996 135.209 20.236C134.649 20.46 133.985 20.572 133.217 20.572C131.553 20.572 130.257 20.028 129.329 18.94C128.417 17.852 127.961 16.316 127.961 14.332C127.961 12.412 128.401 10.924 129.281 9.868C130.161 8.796 131.401 8.26 133.001 8.26C134.665 8.26 135.873 8.844 136.625 10.012H136.673L136.913 8.5H139.457ZM136.409 13.756C136.409 12.716 136.185 11.924 135.737 11.38C135.289 10.82 134.641 10.54 133.793 10.54C132.897 10.54 132.209 10.876 131.729 11.548C131.249 12.204 131.009 13.156 131.009 14.404C131.009 15.652 131.241 16.596 131.705 17.236C132.185 17.876 132.881 18.196 133.793 18.196C134.641 18.196 135.289 17.948 135.737 17.452C136.185 16.94 136.409 16.22 136.409 15.292V13.756ZM152.889 15.628H144.537C144.793 17.324 145.777 18.172 147.489 18.172C148.193 18.172 148.801 18.052 149.313 17.812C149.841 17.572 150.353 17.172 150.849 16.612L152.505 18.196C152.041 18.964 151.337 19.58 150.393 20.044C149.465 20.508 148.441 20.74 147.321 20.74C145.449 20.74 143.993 20.196 142.953 19.108C141.913 18.004 141.393 16.484 141.393 14.548C141.393 12.596 141.913 11.06 142.953 9.94C144.009 8.82 145.457 8.26 147.297 8.26C149.057 8.26 150.425 8.812 151.401 9.916C152.393 11.02 152.889 12.556 152.889 14.524V15.628ZM149.889 13.396C149.889 12.58 149.649 11.94 149.169 11.476C148.705 10.996 148.057 10.756 147.225 10.756C146.473 10.756 145.865 11.004 145.401 11.5C144.937 11.98 144.641 12.66 144.513 13.54H149.889V13.396Z" fill="#EEEEF0"/>
<path d="M155.265 3.7H160.857C162.841 3.7 164.345 4.156 165.369 5.068C166.393 5.964 166.905 7.292 166.905 9.052C166.905 10.908 166.377 12.324 165.321 13.3C164.281 14.26 162.753 14.74 160.737 14.74H158.721V20.5H155.265V3.7ZM161.025 12.004C161.857 12.004 162.481 11.764 162.897 11.284C163.329 10.788 163.545 10.076 163.545 9.148C163.545 8.268 163.313 7.604 162.849 7.156C162.401 6.692 161.729 6.46 160.833 6.46H158.721V12.004H161.025ZM171.887 20.74C171.103 20.74 170.399 20.58 169.775 20.26C169.151 19.924 168.663 19.468 168.311 18.892C167.959 18.3 167.783 17.644 167.783 16.924C167.783 15.692 168.271 14.748 169.247 14.092C170.223 13.436 171.615 13.108 173.423 13.108H175.295V12.604C175.295 11.964 175.103 11.476 174.719 11.14C174.351 10.788 173.823 10.612 173.135 10.612C172.415 10.612 171.727 10.74 171.071 10.996C170.415 11.252 169.879 11.604 169.463 12.052L168.119 10.276C168.775 9.652 169.551 9.164 170.447 8.812C171.343 8.444 172.271 8.26 173.231 8.26C174.831 8.26 176.087 8.636 176.999 9.388C177.911 10.14 178.367 11.18 178.367 12.508V17.98C178.367 18.348 178.391 18.78 178.439 19.276C178.503 19.772 178.575 20.18 178.655 20.5H175.943C175.847 20.292 175.775 20.092 175.727 19.9C175.679 19.692 175.639 19.412 175.607 19.06H175.559C174.647 20.18 173.423 20.74 171.887 20.74ZM172.631 18.436C173.399 18.436 174.031 18.244 174.527 17.86C175.039 17.46 175.295 16.956 175.295 16.348V15.148H173.327C172.511 15.148 171.879 15.3 171.431 15.604C170.999 15.908 170.783 16.348 170.783 16.924C170.783 17.404 170.943 17.78 171.263 18.052C171.599 18.308 172.055 18.436 172.631 18.436ZM184.83 20.74C183.79 20.74 182.87 20.532 182.07 20.116C181.286 19.7 180.734 19.148 180.414 18.46L182.31 17.14C182.598 17.54 182.966 17.86 183.414 18.1C183.862 18.34 184.318 18.46 184.782 18.46C185.326 18.46 185.774 18.324 186.126 18.052C186.478 17.764 186.654 17.412 186.654 16.996C186.654 16.66 186.526 16.396 186.27 16.204C186.014 15.996 185.47 15.732 184.638 15.412C183.182 14.852 182.158 14.284 181.566 13.708C180.974 13.132 180.678 12.42 180.678 11.572C180.678 10.58 181.078 9.78 181.878 9.172C182.694 8.564 183.774 8.26 185.118 8.26C186.014 8.26 186.822 8.436 187.542 8.788C188.262 9.124 188.846 9.612 189.294 10.252L187.518 11.572C186.958 10.884 186.198 10.54 185.238 10.54C184.758 10.54 184.382 10.628 184.11 10.804C183.854 10.964 183.726 11.204 183.726 11.524C183.726 11.748 183.782 11.932 183.894 12.076C184.006 12.22 184.222 12.372 184.542 12.532C184.862 12.692 185.374 12.908 186.078 13.18C187.022 13.548 187.75 13.908 188.262 14.26C188.79 14.596 189.158 14.972 189.366 15.388C189.59 15.788 189.702 16.276 189.702 16.852C189.702 17.62 189.494 18.3 189.078 18.892C188.678 19.468 188.11 19.924 187.374 20.26C186.638 20.58 185.79 20.74 184.83 20.74ZM195.424 20.74C194.384 20.74 193.464 20.532 192.664 20.116C191.88 19.7 191.328 19.148 191.008 18.46L192.904 17.14C193.192 17.54 193.56 17.86 194.008 18.1C194.456 18.34 194.912 18.46 195.376 18.46C195.92 18.46 196.368 18.324 196.72 18.052C197.072 17.764 197.248 17.412 197.248 16.996C197.248 16.66 197.12 16.396 196.864 16.204C196.608 15.996 196.064 15.732 195.232 15.412C193.776 14.852 192.752 14.284 192.16 13.708C191.568 13.132 191.272 12.42 191.272 11.572C191.272 10.58 191.672 9.78 192.472 9.172C193.288 8.564 194.368 8.26 195.712 8.26C196.608 8.26 197.416 8.436 198.136 8.788C198.856 9.124 199.44 9.612 199.888 10.252L198.112 11.572C197.552 10.884 196.792 10.54 195.832 10.54C195.352 10.54 194.976 10.628 194.704 10.804C194.448 10.964 194.32 11.204 194.32 11.524C194.32 11.748 194.376 11.932 194.488 12.076C194.6 12.22 194.816 12.372 195.136 12.532C195.456 12.692 195.968 12.908 196.672 13.18C197.616 13.548 198.344 13.908 198.856 14.26C199.384 14.596 199.752 14.972 199.96 15.388C200.184 15.788 200.296 16.276 200.296 16.852C200.296 17.62 200.088 18.3 199.672 18.892C199.272 19.468 198.704 19.924 197.968 20.26C197.232 20.58 196.384 20.74 195.424 20.74Z" fill="#E0B669"/>
<defs>
<clipPath id="clip0_4512_6173">
<rect width="32.4706" height="24" fill="white"/>
</clipPath>
</defs>
</svg>
